<svg xmlns="http://www.w3.org/2000/svg" viewBox="0 0 64 64"><rect width="64" height="64" rx="14" fill="#C3B1E1"/><svg x="2" y="3" width="60" height="60" viewBox="0 0 100 100" fill="none" stroke="#1A1714" stroke-width="2.4" stroke-linecap="round" stroke-linejoin="round"><circle cx="46" cy="58" r="42" fill="#FFFDF8"></circle><circle cx="46" cy="58" r="34" stroke-width="1.4" stroke-opacity="0.35"></circle><path d="M75 50h9c4.4 0 6.4 2.6 6.4 6.4s-2 6.4-6.4 6.4h-9" fill="#F4EFE6"></path><circle cx="46" cy="56" r="31" fill="#F4EFE6"></circle><circle cx="46" cy="56" r="26.5" fill="#6B4430"></circle><circle cx="46" cy="56" r="22" fill="#D9B48C" stroke-width="1.4"></circle><g opacity="1"><path d="M37 41.5Q46 35.2 55 41.5Q46 43.9 37 41.5Z" fill="#FFFDF8" stroke-width="1.1"></path><path d="M33.5 46.2Q46 37.45 58.5 46.2Q46 48.6 33.5 46.2Z" fill="#FFFDF8" stroke-width="1.1"></path><path d="M31 50.9Q46 40.4 61 50.9Q46 53.3 31 50.9Z" fill="#FFFDF8" stroke-width="1.1"></path><path d="M29.8 55.6Q46 44.260000000000005 62.2 55.6Q46 58 29.8 55.6Z" fill="#FFFDF8" stroke-width="1.1"></path><path d="M31.2 60.3Q46 49.94 60.8 60.3Q46 62.699999999999996 31.2 60.3Z" fill="#FFFDF8" stroke-width="1.1"></path><path d="M34 65Q46 56.6 58 65Q46 67.4 34 65Z" fill="#FFFDF8" stroke-width="1.1"></path><path d="M38 69.4Q46 63.800000000000004 54 69.4Q46 71.80000000000001 38 69.4Z" fill="#FFFDF8" stroke-width="1.1"></path><path d="M46 39.5V73" pathLength="1" stroke-dasharray="1" stroke-dashoffset="0" stroke-width="1.6" stroke="#6B4430"></path><g stroke-width="1.8"><path d="M16 30v6M13 33h6"></path><path d="M80 66v5M77.5 68.5h5"></path><path d="M22 84v4M20 86h4" stroke-opacity="0.7"></path></g></g></svg></svg>